<?xml version="1.0" encoding="utf-8"?>
<!-- Generator: Adobe Illustrator 15.1.0, SVG Export Plug-In . SVG Version: 6.00 Build 0)  -->
<!DOCTYPE svg PUBLIC "-//W3C//DTD SVG 1.1//EN" "http://www.w3.org/Graphics/SVG/1.1/DTD/svg11.dtd">
<svg version="1.1" id="Layer_1" xmlns="http://www.w3.org/2000/svg" xmlns:xlink="http://www.w3.org/1999/xlink" x="0px" y="0px"
	 width="803.096px" height="457.238px" viewBox="0 0 803.096 457.238" enable-background="new 0 0 803.096 457.238"
	 xml:space="preserve">
<g>
	<path d="M194.321,178.145l2.514,0.888c0,0,2.544-0.798,4.719-2.125c0,0-0.171,3.079,4.604,1.1c0,0-0.525,1.706,1.383,2.322
		c1.908,0.615,3.957-0.163,5.305,2.508c1.349,2.669,0.759,6.41,3.429,9.917c2.67,3.507,4.938,6.835,8.905,9.347
		c3.968,2.513-0.757,3.301-0.757,3.301s-5.164-3.9-9.49-4.269c-4.325-0.367-7.429,2.484-10.447-5.914c0,0-2.772-1.125-4.822,4.509
		c0,0-1.911,2.902,3.434,6.399c5.346,3.498,10.934,8.075,10.006,19.311c-0.927,11.234-10.795,13.474-16.463,16.627
		c-5.667,3.156-10.189,13.746-5.585,19.701s8.836,9.871,14.453,8.08c7.791-2.484,10.088-11.363,6.944-14.355
		c-3.145-2.992-5.906-3.09-10.393-0.913c0,0,2.946-5.472,9.901-2.584c6.956,2.885,5.08,10.296,3.264,14.332
		c-1.818,4.04-10.433,12.666-22.804,6.979c-12.373-5.688-13.687-13.562-14.322-17.005c-0.637-3.44-0.182-9.308,2.445-16.5
		c0,0-0.044-2.325-1.681-1.93c-1.635,0.396-5.232,0.479-6.654,0.851c0,0,1.689-0.695-1.234-4.723c0,0,3.95-3.562-0.434-6.142
		c0,0,5.199-2.923,1.606-6.36c0,0,4.548,0.954,7.99-1.301c0,0,1.188,4.236,1.51,4.199c0.321-0.039,3.314,1.673,5.583,0.812
		c2.268-0.86,5.321-3.19,0.751-7.066c-4.567-3.875-5.154-7.479-4.831-10.306c0.433-3.795,2.674-9.722,6.671-13.75
		c0,0,0.457-2.769-1.462-3.631c-1.918-0.862-3.12-1.16-1.61-1.817c1.509-0.656,2.341-0.888,2.082-1.794
		c-0.26-0.906,1.731-2.499,0.489-3.787c0,0,4.295-0.375,4.601-1.997C194.226,179.437,194.321,178.145,194.321,178.145"/>
	
		<ellipse fill="none" stroke="#712526" stroke-width="0.8739" stroke-miterlimit="10" cx="199.123" cy="225.668" rx="63.155" ry="185.046"/>
	<path fill="#712526" d="M177.739,76.316c0,8.646-7.009,15.655-15.655,15.655s-15.655-7.009-15.655-15.655
		s7.01-15.655,15.655-15.655S177.739,67.67,177.739,76.316"/>
	<g>
		<g>
			
				<ellipse transform="matrix(0.5 0.866 -0.866 0.5 295.5789 -61.4328)" fill="none" stroke="#000000" stroke-width="7.5144" stroke-miterlimit="10" cx="200.992" cy="225.265" rx="63.152" ry="185.034"/>
		</g>
		<g>
			<g>
				<defs>
					<rect id="SVGID_1_" x="33.87" y="114.006" width="334.242" height="233.659"/>
				</defs>
				<clipPath id="SVGID_2_">
					<use xlink:href="#SVGID_1_"  overflow="visible"/>
				</clipPath>
				<path clip-path="url(#SVGID_2_)" d="M82.343,318.45c7.488-4.323,17.062-1.759,21.385,5.729
					c4.324,7.486,1.758,17.062-5.729,21.385c-7.487,4.322-17.062,1.758-21.386-5.729C72.29,332.348,74.856,322.773,82.343,318.45"/>
			</g>
		</g>
	</g>
	<g>
		<g>
			<g>
				<defs>
					
						<rect id="SVGID_3_" x="27.226" y="106.376" transform="matrix(0.5 -0.866 0.866 0.5 -96.1284 279.9033)" width="334.232" height="233.653"/>
				</defs>
				<clipPath id="SVGID_4_">
					<use xlink:href="#SVGID_3_"  overflow="visible"/>
				</clipPath>
				
					<ellipse clip-path="url(#SVGID_4_)" fill="none" stroke="#000000" stroke-width="7.5145" stroke-miterlimit="10" cx="199.171" cy="225.984" rx="63.156" ry="185.045"/>
			</g>
		</g>
		<g>
			<path d="M177.787,76.632c0,8.646-7.008,15.656-15.654,15.656s-15.656-7.009-15.656-15.655s7.009-15.655,15.655-15.655
				S177.787,67.987,177.787,76.632"/>
		</g>
	</g>
	<g>
		<g>
			<path d="M339.713,281.201c-7.488-4.323-10.054-13.898-5.729-21.387c4.321-7.486,13.896-10.055,21.386-5.729
				c7.487,4.323,10.053,13.897,5.729,21.386C356.775,282.96,347.201,285.523,339.713,281.201"/>
		</g>
	</g>
	<polygon points="448.774,133.325 474.122,94.464 491.224,68.277 491.224,185.854 474.122,185.854 474.122,125.768 448.774,164.629 
		423.426,125.768 423.426,185.854 406.322,185.854 406.322,68.277 423.426,94.464 	"/>
	<rect x="509.547" y="72.858" width="17.104" height="112.996"/>
	<path d="M569.328,170.66l-6.031,15.575h-18.325l45.354-117.881l45.272,117.881h-18.322l-5.956-15.575H569.328z M575.895,153.558
		h28.859l-14.43-37.487L575.895,153.558z"/>
	<polygon points="696.373,133.325 721.72,94.464 738.821,68.277 738.821,185.854 721.72,185.854 721.72,125.768 696.373,164.629 
		671.025,125.768 671.025,185.854 653.921,185.854 653.921,68.277 671.025,94.464 	"/>
	<rect x="757.146" y="72.858" width="17.104" height="112.996"/>
	<path d="M423.165,289.922c-3.499,0-6.588-0.438-9.269-1.312c-2.68-0.875-5.551-2.439-8.613-4.7V268.87
		c1.896,2.004,3.354,3.364,4.375,4.073c1.021,0.711,2.271,1.468,3.747,2.27c1.476,0.803,3.105,1.477,4.894,2.025
		c1.785,0.545,3.553,0.818,5.303,0.818c3.609,0,6.572-1.248,8.889-3.746c2.313-2.498,3.471-5.459,3.471-8.887
		c0-2.807-0.984-5.085-2.951-6.834c-1.969-1.75-5.192-3.755-9.68-6.016c-2.696-1.387-4.976-2.645-6.834-3.773
		c-1.858-1.131-3.646-2.531-5.358-4.21c-1.713-1.676-3.1-3.671-4.153-5.985c-1.06-2.313-1.586-5.039-1.586-8.177
		c0.146-3.062,0.894-5.913,2.24-8.557c1.349-2.643,3.17-4.957,5.469-6.944c2.297-1.986,4.909-3.526,7.848-4.621
		c2.933-1.093,6.021-1.64,9.268-1.64c2.44,0.074,4.665,0.409,6.67,1.013c2.008,0.6,4.283,1.685,6.836,3.252v12.631
		c-1.529-1.021-2.577-1.649-3.144-1.887c-0.566-0.238-1.367-0.639-2.407-1.203c-1.037-0.564-2.24-1.048-3.605-1.448
		c-1.368-0.401-2.817-0.603-4.35-0.603c-3.427,0.038-6.323,1.121-8.692,3.254c-2.368,2.131-3.556,4.602-3.556,7.409
		c0.073,2.661,1.067,4.784,2.98,6.37c1.913,1.585,5.003,3.359,9.268,5.33c2.916,1.388,5.295,2.605,7.14,3.665
		c1.838,1.056,3.648,2.425,5.438,4.1c1.784,1.681,3.229,3.792,4.319,6.343c1.095,2.555,1.677,5.579,1.749,9.077
		c0,3.209-0.675,6.263-2.022,9.158c-1.348,2.897-3.226,5.461-5.632,7.685c-2.405,2.224-5.167,3.965-8.283,5.223
		C429.808,289.293,426.556,289.922,423.165,289.922"/>
	<path d="M517.417,272.973v13.998c-4.737,1.896-9.807,2.842-15.2,2.842c-5.761,0-11.137-1.063-16.131-3.199
		c-4.994-2.131-9.367-5.02-13.123-8.665c-3.755-3.646-6.716-7.919-8.885-12.821c-2.168-4.9-3.254-10.161-3.254-15.773
		c0-5.578,1.086-10.854,3.254-15.83c2.169-4.978,5.13-9.287,8.885-12.933c3.756-3.645,8.129-6.524,13.123-8.639
		c4.994-2.113,10.37-3.171,16.131-3.171c5.396,0,10.463,0.93,15.2,2.789v14.162c-1.347-0.838-2.771-1.567-4.265-2.187
		c-3.428-1.422-7.071-2.132-10.938-2.132c-3.899,0-7.563,0.71-10.99,2.132c-3.427,1.421-6.417,3.4-8.968,5.934
		c-2.552,2.533-4.557,5.504-6.016,8.91c-1.457,3.41-2.188,7.064-2.188,10.967c0,3.899,0.729,7.553,2.188,10.961
		c1.459,3.41,3.464,6.381,6.016,8.914c2.551,2.533,5.541,4.521,8.968,5.959c3.427,1.441,7.091,2.158,10.99,2.158
		c3.864,0,7.51-0.729,10.938-2.187C514.646,274.54,516.07,273.811,517.417,272.973"/>
	<rect x="530.54" y="208.889" width="12.249" height="80.923"/>
	<polygon points="555.911,209.325 593.201,209.325 593.201,221.572 568.215,221.572 568.215,251.318 593.201,251.318 
		593.201,263.566 568.215,263.566 568.215,277.564 593.201,277.564 593.201,289.812 555.911,289.812 	"/>
	<polygon points="643.672,256.238 643.672,208.888 655.919,208.888 655.919,293.367 618.573,242.844 618.573,289.812 
		606.326,289.812 605.126,198.732 	"/>
	<path d="M725.634,272.973v13.998c-4.737,1.896-9.806,2.842-15.2,2.842c-5.76,0-11.137-1.063-16.13-3.199
		c-4.994-2.131-9.368-5.02-13.123-8.665s-6.717-7.919-8.886-12.821c-2.168-4.9-3.254-10.161-3.254-15.773
		c0-5.578,1.086-10.854,3.254-15.83c2.169-4.978,5.131-9.287,8.886-12.933c3.755-3.645,8.129-6.524,13.123-8.639
		c4.993-2.113,10.37-3.171,16.13-3.171c5.396,0,10.463,0.93,15.2,2.789v14.162c-1.347-0.838-2.769-1.567-4.265-2.187
		c-3.426-1.422-7.071-2.132-10.938-2.132c-3.897,0-7.563,0.71-10.988,2.132c-3.429,1.421-6.418,3.4-8.969,5.934
		c-2.553,2.533-4.558,5.504-6.015,8.91c-1.457,3.41-2.188,7.064-2.188,10.967c0,3.899,0.729,7.553,2.188,10.961
		c1.457,3.41,3.462,6.381,6.015,8.914c2.551,2.533,5.54,4.521,8.969,5.959c3.425,1.441,7.091,2.158,10.988,2.158
		c3.864,0,7.512-0.729,10.938-2.187C722.865,274.54,724.287,273.811,725.634,272.973"/>
	<polygon points="738.756,209.325 776.048,209.325 776.048,221.572 751.061,221.572 751.061,251.318 776.048,251.318 
		776.048,263.566 751.061,263.566 751.061,277.564 776.048,277.564 776.048,289.812 738.756,289.812 	"/>
	<path d="M405.285,413.582V314.33h22.993c6.339,0,11.732,2.225,16.184,6.675s6.676,9.82,6.676,16.115
		c0,6.202-2.137,11.509-6.405,15.913c4.586,1.438,8.741,4.001,12.475,7.687c6.024,6.068,9.034,13.375,9.034,21.914
		c0,8.541-3.022,15.836-9.067,21.88c-6.048,6.047-13.342,9.068-21.881,9.068H405.285L405.285,413.582z M420.39,346.359h7.891
		c2.155,0,3.986-0.82,5.495-2.465c1.508-1.642,2.26-3.651,2.26-6.033c0-2.338-0.752-4.326-2.26-5.969
		c-1.509-1.642-3.34-2.459-5.495-2.459h-7.891V346.359z M420.39,364.831v22.724v10.927h14.901c4.36,0,8.091-1.651,11.191-4.958
		c3.104-3.305,4.653-7.271,4.653-11.9c0-4.584-1.551-8.528-4.653-11.834c-3.103-3.303-6.831-4.956-11.191-4.956L420.39,364.831
		L420.39,364.831z"/>
	<path d="M497.395,400.165l-5.327,13.755h-16.185l40.055-104.109l39.983,104.109h-16.182l-5.264-13.755H497.395z M503.192,385.062
		h25.485l-12.743-33.107L503.192,385.062z"/>
	<path d="M612.562,384.048l14.157,29.67h-16.184l-10.72-22.993c-3.6,1.08-7.417,1.618-11.462,1.618h-1.147v21.239h-15.104v-99.93
		h16.253c10.876,0,20.157,3.846,27.848,11.533c7.686,7.686,11.529,16.945,11.529,27.778c0,10.878-3.846,20.162-11.529,27.847
		C615.031,381.982,613.817,383.062,612.562,384.048 M587.208,377.374h1.147c6.738,0,12.493-2.382,17.261-7.146
		c4.765-4.767,7.146-10.521,7.146-17.264s-2.382-12.497-7.146-17.263c-4.768-4.765-10.521-7.147-17.261-7.147h-1.147V377.374z"/>
	<path d="M700.758,397.738v-16.521h-10.452v-15.103h23.397v43.962c-5.845,2.34-12.094,3.506-18.746,3.506
		c-7.104,0-13.733-1.312-19.891-3.942c-6.159-2.631-11.556-6.192-16.184-10.688c-4.633-4.494-8.283-9.765-10.959-15.812
		c-2.675-6.043-4.012-12.527-4.012-19.453c0-6.879,1.337-13.385,4.012-19.521c2.676-6.136,6.326-11.454,10.959-15.945
		c4.628-4.494,10.022-8.048,16.184-10.652c6.155-2.606,12.786-3.913,19.891-3.913c6.652,0,12.901,1.147,18.746,3.44v17.463
		c-1.664-1.033-3.416-1.936-5.261-2.697c-4.228-1.754-8.723-2.631-13.485-2.631c-4.809,0-9.327,0.877-13.552,2.631
		c-4.229,1.752-7.913,4.193-11.061,7.316c-3.146,3.125-5.619,6.786-7.418,10.987c-1.797,4.206-2.694,8.711-2.694,13.521
		c0,4.812,0.897,9.315,2.694,13.521c1.799,4.204,4.271,7.866,7.418,10.989c3.146,3.125,6.832,5.573,11.061,7.35
		c4.225,1.777,8.743,2.666,13.552,2.666C696.936,398.211,698.867,398.052,700.758,397.738"/>
	<polygon points="729.887,314.33 775.872,314.33 775.872,329.434 745.058,329.434 745.058,366.113 775.872,366.113 775.872,381.216 
		745.058,381.216 745.058,398.479 775.872,398.479 775.872,413.582 729.887,413.582 	"/>
</g>
<g>
	<g>
		
			<ellipse transform="matrix(0.5 -0.866 0.866 0.5 -95.0417 285.4457)" fill="none" stroke="#000000" stroke-width="7.5145" stroke-miterlimit="10" cx="199.686" cy="225.032" rx="63.153" ry="185.037"/>
	</g>
</g>
</svg>
