<?xml version="1.0" encoding="utf-8"?>
<!-- Generator: Adobe Illustrator 15.1.0, SVG Export Plug-In . SVG Version: 6.00 Build 0)  -->
<!DOCTYPE svg PUBLIC "-//W3C//DTD SVG 1.1//EN" "http://www.w3.org/Graphics/SVG/1.1/DTD/svg11.dtd">
<svg version="1.1" id="Layer_1" xmlns="http://www.w3.org/2000/svg" xmlns:xlink="http://www.w3.org/1999/xlink" x="0px" y="0px"
	 width="803.096px" height="457.238px" viewBox="0 0 803.096 457.238" enable-background="new 0 0 803.096 457.238"
	 xml:space="preserve">
<symbol  id="Electron_Path" viewBox="-266.882 -183.821 533.762 373.139">
	<path fill="none" stroke="#000000" stroke-width="12" stroke-miterlimit="10" d="M-50.427,98.997
		c141.336,81.601,278.487,108.646,306.337,60.409C283.76,111.168,191.762,5.915,50.427-75.687
		c-141.336-81.6-278.488-108.646-306.338-60.408C-283.762-87.856-191.763,17.396-50.427,98.997z"/>
	<path d="M-189.474-137.167c11.957,6.904,27.247,2.808,34.15-9.15c6.903-11.957,2.807-27.247-9.15-34.15
		c-11.958-6.903-27.248-2.807-34.151,9.15C-205.529-159.359-201.432-144.07-189.474-137.167z"/>
</symbol>
<g>
	<g>
		<g>
			<path d="M204.486,169.317l2.968,1.048c0,0,3.005-0.942,5.572-2.51c0,0-0.201,3.636,5.437,1.299c0,0-0.62,2.015,1.633,2.742
				s4.673-0.191,6.265,2.961c1.593,3.152,0.896,7.569,4.049,11.711c3.153,4.141,5.83,8.07,10.514,11.037
				c4.687,2.966-0.893,3.896-0.893,3.896s-6.098-4.605-11.206-5.04c-5.107-0.434-8.771,2.933-12.337-6.983
				c0,0-3.273-1.329-5.692,5.322c0,0-2.258,3.428,4.055,7.557s12.91,9.536,11.815,22.802c-1.095,13.268-12.747,15.909-19.44,19.635
				c-6.692,3.727-12.031,16.232-6.595,23.263c5.437,7.032,10.434,11.655,17.065,9.54c9.2-2.933,11.912-13.418,8.198-16.95
				c-3.712-3.536-6.974-3.649-12.271-1.078c0,0,3.479-6.461,11.692-3.053c8.214,3.407,5.998,12.157,3.853,16.924
				c-2.146,4.769-12.318,14.957-26.926,8.242c-14.61-6.717-16.161-16.015-16.913-20.079c-0.751-4.064-0.215-10.991,2.889-19.484
				c0,0-0.053-2.747-1.984-2.277c-1.932,0.469-6.179,0.564-7.857,1.004c0,0,1.994-0.822-1.458-5.576c0,0,4.665-4.208-0.511-7.253
				c0,0,6.139-3.45,1.896-7.509c0,0,5.37,1.126,9.435-1.537c0,0,1.404,5.003,1.783,4.958c0.379-0.045,3.912,1.976,6.592,0.959
				c2.678-1.017,6.282-3.768,0.887-8.345c-5.394-4.576-6.086-8.831-5.705-12.169c0.513-4.482,3.157-11.48,7.877-16.237
				c0,0,0.539-3.269-1.726-4.288c-2.266-1.019-3.684-1.37-1.901-2.145c1.782-0.776,2.766-1.05,2.458-2.119
				c-0.307-1.07,2.044-2.951,0.578-4.471c0,0,5.071-0.442,5.433-2.358C204.373,170.843,204.486,169.317,204.486,169.317z"/>
			<g>
				
					<ellipse fill="none" stroke="#702525" stroke-width="0.7457" stroke-miterlimit="10" cx="210.155" cy="225.433" rx="74.575" ry="218.505"/>
				<circle fill="#702525" cx="166.419" cy="49.077" r="18.486"/>
			</g>
			
				<use xlink:href="#Electron_Path"  width="533.762" height="373.139" id="XMLID_1_" x="-266.882" y="-183.821" transform="matrix(0.7394 0 0 -0.7394 212.3623 233.5674)" overflow="visible"/>
			
				<use xlink:href="#Electron_Path"  width="533.762" height="373.139" x="-266.882" y="-183.821" transform="matrix(-0.3697 0.6404 0.6404 0.3697 202.75 221.4971)" overflow="visible"/>
			
				<use xlink:href="#Electron_Path"  width="533.762" height="373.139" x="-266.882" y="-183.821" transform="matrix(-0.3697 -0.6404 -0.6404 0.3697 218.2783 220.3848)" overflow="visible"/>
		</g>
		<g>
			<path d="M497.317,131.621l15.62-23.948l10.539-16.138v72.456h-10.539v-37.027l-15.62,23.948l-15.62-23.948v37.027h-10.54V91.536
				l10.54,16.138L497.317,131.621z"/>
			<path d="M534.768,94.359h10.54v69.632h-10.54V94.359z"/>
			<path d="M571.607,154.628l-3.717,9.598h-11.292l27.947-72.643l27.9,72.643h-11.292l-3.67-9.598H571.607z M575.654,144.089h17.784
				l-8.893-23.101L575.654,144.089z"/>
			<path d="M649.897,131.621l15.62-23.948l10.539-16.138v72.456h-10.539v-37.027l-15.62,23.948l-15.62-23.948v37.027h-10.54V91.536
				l10.54,16.138L649.897,131.621z"/>
			<path d="M687.348,94.359h10.54v69.632h-10.54V94.359z"/>
			<path d="M486.543,260.238c-3.011,0-5.669-0.375-7.976-1.129c-2.305-0.752-4.774-2.1-7.41-4.045v-12.939
				c1.632,1.726,2.886,2.895,3.764,3.505c0.879,0.612,1.953,1.263,3.224,1.953c1.271,0.69,2.674,1.27,4.211,1.742
				c1.536,0.47,3.058,0.705,4.563,0.705c3.105,0,5.654-1.075,7.646-3.223c1.991-2.149,2.986-4.697,2.986-7.646
				c0-2.416-0.847-4.376-2.54-5.881s-4.47-3.23-8.328-5.175c-2.32-1.192-4.281-2.274-5.881-3.247c-1.6-0.972-3.137-2.18-4.611-3.623
				c-1.474-1.442-2.666-3.159-3.575-5.152c-0.91-1.991-1.364-4.336-1.364-7.033c0.125-2.636,0.769-5.089,1.929-7.364
				c1.16-2.274,2.729-4.265,4.705-5.976c1.976-1.709,4.226-3.034,6.752-3.975c2.523-0.94,5.182-1.412,7.975-1.412
				c2.101,0.063,4.015,0.353,5.739,0.871c1.726,0.517,3.686,1.45,5.882,2.799v10.868c-1.317-0.878-2.219-1.419-2.705-1.624
				c-0.487-0.204-1.177-0.549-2.071-1.035c-0.893-0.486-1.929-0.902-3.104-1.247c-1.177-0.345-2.423-0.519-3.74-0.519
				c-2.949,0.032-5.442,0.965-7.481,2.8c-2.038,1.835-3.058,3.96-3.058,6.375c0.062,2.29,0.918,4.117,2.564,5.481
				s4.305,2.893,7.975,4.587c2.509,1.193,4.556,2.244,6.141,3.153c1.583,0.91,3.143,2.086,4.681,3.528
				c1.536,1.444,2.775,3.263,3.717,5.458c0.941,2.196,1.442,4.8,1.505,7.811c0,2.761-0.58,5.388-1.74,7.881
				c-1.16,2.494-2.775,4.698-4.846,6.609c-2.07,1.914-4.446,3.413-7.128,4.495C492.259,259.698,489.46,260.238,486.543,260.238z"/>
			<path d="M568.644,245.653v12.045c-4.077,1.629-8.438,2.446-13.079,2.446c-4.957,0-9.583-0.917-13.88-2.753
				c-4.298-1.834-8.062-4.32-11.292-7.458c-3.231-3.136-5.779-6.813-7.646-11.033c-1.866-4.218-2.8-8.743-2.8-13.573
				c0-4.799,0.934-9.339,2.8-13.621c1.866-4.282,4.414-7.991,7.646-11.128c3.23-3.136,6.994-5.614,11.292-7.433
				c4.297-1.819,8.923-2.729,13.88-2.729c4.641,0,9.002,0.801,13.079,2.4v12.186c-1.16-0.722-2.384-1.349-3.67-1.882
				c-2.948-1.223-6.085-1.835-9.409-1.835c-3.357,0-6.51,0.612-9.457,1.835c-2.949,1.223-5.521,2.925-7.717,5.104
				c-2.195,2.181-3.921,4.737-5.176,7.669c-1.254,2.934-1.881,6.078-1.881,9.434s0.627,6.501,1.881,9.433
				c1.255,2.933,2.98,5.489,5.176,7.669c2.195,2.181,4.768,3.89,7.717,5.128c2.947,1.24,6.1,1.858,9.457,1.858
				c3.324,0,6.461-0.627,9.409-1.882C566.26,247.002,567.483,246.375,568.644,245.653z"/>
			<path d="M579.936,190.512h10.539v69.633h-10.539V190.512z"/>
			<path d="M601.766,190.888h32.088v10.539h-21.501v25.595h21.501v10.539h-21.501v12.045h21.501v10.539h-32.088V190.888z"/>
			<path d="M677.28,231.256v-40.744h10.539v72.691l-32.135-43.474v40.416h-10.539v-72.456L677.28,231.256z"/>
			<path d="M747.807,245.653v12.045c-4.077,1.629-8.438,2.446-13.079,2.446c-4.957,0-9.583-0.917-13.879-2.753
				c-4.299-1.834-8.062-4.32-11.292-7.458c-3.231-3.136-5.78-6.813-7.646-11.033c-1.866-4.218-2.8-8.743-2.8-13.573
				c0-4.799,0.934-9.339,2.8-13.621c1.866-4.282,4.415-7.991,7.646-11.128c3.229-3.136,6.993-5.614,11.292-7.433
				c4.296-1.819,8.922-2.729,13.879-2.729c4.642,0,9.002,0.801,13.079,2.4v12.186c-1.16-0.722-2.383-1.349-3.67-1.882
				c-2.948-1.223-6.085-1.835-9.409-1.835c-3.356,0-6.51,0.612-9.457,1.835c-2.949,1.223-5.521,2.925-7.716,5.104
				c-2.196,2.181-3.922,4.737-5.176,7.669c-1.254,2.934-1.882,6.078-1.882,9.434s0.628,6.501,1.882,9.433
				c1.254,2.933,2.979,5.489,5.176,7.669c2.194,2.181,4.767,3.89,7.716,5.128c2.947,1.24,6.101,1.858,9.457,1.858
				c3.324,0,6.461-0.627,9.409-1.882C745.424,247.002,746.646,246.375,747.807,245.653z"/>
			<path d="M759.098,190.888h32.088v10.539h-21.501v25.595h21.501v10.539h-21.501v12.045h21.501v10.539h-32.088V190.888z"/>
			<path d="M471.157,356.298v-69.255h16.044c4.423,0,8.188,1.552,11.292,4.657c3.105,3.105,4.658,6.853,4.658,11.245
				c0,4.328-1.49,8.03-4.47,11.104c3.199,1.004,6.1,2.791,8.704,5.364c4.203,4.233,6.304,9.332,6.304,15.291
				s-2.109,11.048-6.327,15.266c-4.22,4.219-9.309,6.328-15.268,6.328H471.157z M481.697,309.392h5.504
				c1.506,0,2.783-0.572,3.835-1.719c1.051-1.145,1.576-2.548,1.576-4.21c0-1.632-0.525-3.019-1.576-4.165
				c-1.052-1.144-2.329-1.716-3.835-1.716h-5.504V309.392z M481.697,322.281v15.855v7.623h10.397c3.042,0,5.646-1.152,7.81-3.458
				c2.165-2.306,3.247-5.074,3.247-8.305c0-3.198-1.082-5.951-3.247-8.257c-2.164-2.304-4.768-3.458-7.81-3.458H481.697z"/>
			<path d="M535.428,346.936l-3.718,9.597h-11.292l27.948-72.644l27.899,72.644h-11.291l-3.671-9.597H535.428z M539.474,336.397
				h17.784l-8.892-23.101L539.474,336.397z"/>
			<path d="M615.787,335.69l9.88,20.702h-11.292l-7.48-16.044c-2.51,0.754-5.175,1.129-7.998,1.129h-0.8v14.821h-10.54v-69.727
				h11.34c7.59,0,14.067,2.683,19.432,8.047c5.363,5.362,8.045,11.825,8.045,19.383c0,7.59-2.682,14.068-8.045,19.431
				C617.511,334.249,616.664,335.001,615.787,335.69z M598.097,331.033h0.8c4.704,0,8.72-1.662,12.045-4.987
				c3.324-3.325,4.986-7.34,4.986-12.045s-1.662-8.72-4.986-12.045c-3.325-3.324-7.341-4.987-12.045-4.987h-0.8V331.033z"/>
			<path d="M677.327,345.242v-11.528h-7.293v-10.539h16.326v30.676c-4.078,1.631-8.438,2.446-13.08,2.446
				c-4.956,0-9.583-0.917-13.879-2.751c-4.298-1.836-8.062-4.322-11.292-7.458c-3.231-3.136-5.779-6.813-7.646-11.033
				c-1.866-4.218-2.799-8.742-2.799-13.574c0-4.799,0.933-9.339,2.799-13.62c1.867-4.282,4.415-7.992,7.646-11.128
				c3.229-3.136,6.994-5.614,11.292-7.433c4.296-1.819,8.923-2.73,13.879-2.73c4.642,0,9.002,0.802,13.08,2.401v12.185
				c-1.161-0.722-2.384-1.349-3.671-1.881c-2.948-1.224-6.085-1.836-9.409-1.836c-3.356,0-6.509,0.612-9.456,1.836
				c-2.949,1.222-5.521,2.925-7.717,5.104c-2.196,2.181-3.921,4.737-5.176,7.668c-1.254,2.935-1.881,6.078-1.881,9.434
				c0,3.357,0.627,6.501,1.881,9.434c1.255,2.933,2.979,5.489,5.176,7.668c2.195,2.181,4.768,3.89,7.717,5.129
				c2.947,1.239,6.1,1.859,9.456,1.859C674.66,345.572,676.009,345.462,677.327,345.242z"/>
			<path d="M697.652,287.043h32.087v10.539h-21.501v25.594h21.501v10.539h-21.501v12.045h21.501v10.539h-32.087V287.043z"/>
		</g>
	</g>
</g>
</svg>
