<?xml version="1.0" encoding="utf-8"?>
<!-- Generator: Adobe Illustrator 15.1.0, SVG Export Plug-In . SVG Version: 6.00 Build 0)  -->
<!DOCTYPE svg PUBLIC "-//W3C//DTD SVG 1.1//EN" "http://www.w3.org/Graphics/SVG/1.1/DTD/svg11.dtd">
<svg version="1.1" id="Layer_1" xmlns="http://www.w3.org/2000/svg" xmlns:xlink="http://www.w3.org/1999/xlink" x="0px" y="0px"
	 width="471.001px" height="272.333px" viewBox="0 0 471.001 272.333" enable-background="new 0 0 471.001 272.333"
	 xml:space="preserve">
<symbol  id="Electron_Path" viewBox="-266.882 -183.821 533.762 373.139">
	<path fill="none" stroke="#000000" stroke-width="12" stroke-miterlimit="10" d="M-50.427,98.997
		c141.336,81.601,278.487,108.646,306.337,60.409C283.76,111.168,191.762,5.915,50.427-75.687
		c-141.336-81.6-278.488-108.646-306.338-60.408C-283.762-87.856-191.763,17.396-50.427,98.997z"/>
	<path d="M-189.474-137.167c11.957,6.904,27.247,2.808,34.15-9.15c6.903-11.957,2.807-27.247-9.15-34.15
		c-11.958-6.903-27.248-2.807-34.151,9.15C-205.529-159.359-201.432-144.07-189.474-137.167z"/>
</symbol>
<g>
	<g>
		<g>
			<path d="M127.081,104.706l1.653,0.583c0,0,1.673-0.524,3.104-1.396c0,0-0.112,2.024,3.027,0.723c0,0-0.346,1.123,0.909,1.526
				c1.255,0.405,2.603-0.106,3.489,1.649s0.499,4.216,2.255,6.522c1.756,2.308,3.247,4.495,5.855,6.147
				c2.609,1.652-0.498,2.17-0.498,2.17s-3.396-2.564-6.24-2.807c-2.845-0.241-4.886,1.634-6.871-3.89c0,0-1.822-0.739-3.17,2.964
				c0,0-1.258,1.909,2.258,4.21c3.516,2.299,7.19,5.31,6.581,12.698c-0.61,7.39-7.1,8.86-10.827,10.936s-6.701,9.039-3.673,12.955
				c3.027,3.918,5.811,6.492,9.504,5.313c5.124-1.634,6.635-7.472,4.566-9.44c-2.068-1.968-3.884-2.031-6.835-0.6
				c0,0,1.938-3.599,6.513-1.7s3.34,6.771,2.146,9.426c-1.195,2.656-6.86,8.329-14.996,4.59c-8.137-3.74-9-8.918-9.419-11.182
				c-0.419-2.265-0.12-6.121,1.608-10.852c0,0-0.029-1.53-1.105-1.269c-1.075,0.262-3.44,0.314-4.375,0.559
				c0,0,1.11-0.458-0.812-3.105c0,0,2.599-2.344-0.284-4.039c0,0,3.419-1.922,1.056-4.182c0,0,2.991,0.628,5.255-0.856
				c0,0,0.782,2.787,0.993,2.762s2.179,1.101,3.671,0.534c1.491-0.565,3.499-2.098,0.494-4.647c-3.004-2.548-3.39-4.917-3.178-6.776
				c0.285-2.497,1.759-6.395,4.388-9.044c0,0,0.3-1.82-0.962-2.388c-1.262-0.566-2.051-0.763-1.059-1.194s1.54-0.585,1.369-1.18
				c-0.171-0.597,1.138-1.645,0.321-2.491c0,0,2.825-0.245,3.025-1.312C127.019,105.557,127.081,104.706,127.081,104.706z"/>
			<g>
				
					<ellipse fill="none" stroke="#702525" stroke-width="0.4153" stroke-miterlimit="10" cx="130.238" cy="135.959" rx="41.533" ry="121.69"/>
				<circle fill="#702525" cx="105.881" cy="37.74" r="10.295"/>
			</g>
			
				<use xlink:href="#Electron_Path"  width="533.762" height="373.139" id="XMLID_1_" x="-266.882" y="-183.821" transform="matrix(0.4118 0 0 -0.4118 131.4678 140.4893)" overflow="visible"/>
			
				<use xlink:href="#Electron_Path"  width="533.762" height="373.139" x="-266.882" y="-183.821" transform="matrix(-0.2059 0.3566 0.3566 0.2059 126.1143 133.7666)" overflow="visible"/>
			
				<use xlink:href="#Electron_Path"  width="533.762" height="373.139" x="-266.882" y="-183.821" transform="matrix(-0.2059 -0.3566 -0.3566 0.2059 134.7617 133.1465)" overflow="visible"/>
		</g>
		<g>
			<path d="M295.748,63.064h4.9v38.728h-5.896V83.058l-6.629,17.687l-6.656-17.949v18.944h-5.869V63.064h4.9l7.625,20.753
				L295.748,63.064z"/>
			<path d="M306.935,62.959h5.871v38.78h-5.871V62.959z"/>
			<path d="M327.453,96.525l-2.07,5.345h-6.287l15.564-40.456l15.537,40.456h-6.287l-2.045-5.345H327.453z M329.707,90.656h9.904
				l-4.951-12.865L329.707,90.656z"/>
			<path d="M371.054,83.712l8.701-13.337l5.869-8.988v40.353h-5.869V81.118l-8.701,13.337l-8.699-13.337v20.621h-5.869V61.387
				l5.869,8.988L371.054,83.712z"/>
			<path d="M391.912,62.959h5.871v38.78h-5.871V62.959z"/>
			<path d="M284.166,155.343c-1.676,0-3.156-0.21-4.441-0.629c-1.283-0.419-2.658-1.17-4.127-2.254v-7.205
				c0.908,0.96,1.607,1.611,2.096,1.952c0.49,0.341,1.088,0.702,1.795,1.087c0.709,0.385,1.49,0.708,2.346,0.97
				s1.703,0.394,2.541,0.394c1.73,0,3.15-0.599,4.26-1.795c1.109-1.197,1.662-2.616,1.662-4.258c0-1.346-0.471-2.438-1.414-3.275
				c-0.943-0.839-2.49-1.8-4.639-2.884c-1.291-0.663-2.383-1.266-3.275-1.807c-0.891-0.542-1.746-1.215-2.566-2.019
				c-0.822-0.803-1.486-1.76-1.992-2.869c-0.508-1.108-0.76-2.415-0.76-3.917c0.07-1.468,0.428-2.834,1.074-4.102
				c0.646-1.267,1.52-2.375,2.621-3.327c1.1-0.952,2.354-1.69,3.76-2.214c1.406-0.524,2.887-0.786,4.441-0.786
				c1.17,0.035,2.236,0.196,3.195,0.484c0.961,0.288,2.053,0.809,3.277,1.56v6.053c-0.734-0.489-1.236-0.79-1.508-0.904
				c-0.271-0.113-0.654-0.306-1.152-0.576c-0.498-0.271-1.074-0.502-1.73-0.694c-0.654-0.191-1.35-0.289-2.082-0.289
				c-1.643,0.019-3.031,0.537-4.166,1.56c-1.137,1.021-1.703,2.206-1.703,3.551c0.033,1.275,0.51,2.292,1.428,3.052
				c0.916,0.76,2.396,1.611,4.441,2.555c1.396,0.665,2.537,1.25,3.42,1.756c0.881,0.507,1.75,1.162,2.607,1.966
				c0.855,0.804,1.545,1.816,2.068,3.04c0.525,1.223,0.805,2.673,0.84,4.35c0,1.537-0.324,3-0.971,4.389s-1.545,2.616-2.697,3.682
				c-1.154,1.065-2.477,1.899-3.971,2.502S285.791,155.343,284.166,155.343z"/>
			<path d="M329.89,147.22v6.708c-2.271,0.908-4.699,1.362-7.285,1.362c-2.76,0-5.336-0.511-7.729-1.532
				c-2.395-1.022-4.49-2.407-6.289-4.153c-1.801-1.747-3.219-3.795-4.258-6.145c-1.041-2.35-1.561-4.869-1.561-7.56
				c0-2.674,0.52-5.202,1.561-7.586c1.039-2.385,2.457-4.451,4.258-6.197c1.799-1.746,3.895-3.127,6.289-4.14
				c2.393-1.013,4.969-1.521,7.729-1.521c2.586,0,5.014,0.446,7.285,1.337v6.786c-0.646-0.401-1.328-0.751-2.045-1.048
				c-1.641-0.682-3.389-1.022-5.24-1.022c-1.869,0-3.625,0.341-5.266,1.022c-1.643,0.681-3.076,1.63-4.299,2.843
				c-1.223,1.215-2.184,2.639-2.881,4.271c-0.699,1.635-1.049,3.386-1.049,5.255s0.35,3.62,1.049,5.254
				c0.697,1.633,1.658,3.057,2.881,4.271s2.656,2.166,4.299,2.856c1.641,0.689,3.396,1.035,5.266,1.035c1.852,0,3.6-0.35,5.24-1.049
				C328.562,147.971,329.244,147.621,329.89,147.22z"/>
			<path d="M336.179,116.51h5.869v38.78h-5.869V116.51z"/>
			<path d="M348.337,116.72h17.869v5.869h-11.975v14.255h11.975v5.869h-11.975v6.708h11.975v5.869h-17.869V116.72z"/>
			<path d="M390.392,139.202V116.51h5.869v40.483l-17.895-24.212v22.509h-5.871v-40.353L390.392,139.202z"/>
			<path d="M429.671,147.22v6.708c-2.271,0.908-4.699,1.362-7.285,1.362c-2.76,0-5.336-0.511-7.729-1.532
				c-2.395-1.022-4.49-2.407-6.289-4.153c-1.801-1.747-3.219-3.795-4.258-6.145c-1.041-2.35-1.561-4.869-1.561-7.56
				c0-2.674,0.52-5.202,1.561-7.586c1.039-2.385,2.457-4.451,4.258-6.197c1.799-1.746,3.895-3.127,6.289-4.14
				c2.393-1.013,4.969-1.521,7.729-1.521c2.586,0,5.014,0.446,7.285,1.337v6.786c-0.646-0.401-1.328-0.751-2.045-1.048
				c-1.641-0.682-3.389-1.022-5.24-1.022c-1.869,0-3.625,0.341-5.266,1.022c-1.643,0.681-3.076,1.63-4.299,2.843
				c-1.223,1.215-2.184,2.639-2.881,4.271c-0.699,1.635-1.049,3.386-1.049,5.255s0.35,3.62,1.049,5.254
				c0.697,1.633,1.658,3.057,2.881,4.271s2.656,2.166,4.299,2.856c1.641,0.689,3.396,1.035,5.266,1.035c1.852,0,3.6-0.35,5.24-1.049
				C428.343,147.971,429.025,147.621,429.671,147.22z"/>
			<path d="M435.958,116.72h17.871v5.869h-11.975v14.255h11.975v5.869h-11.975v6.708h11.975v5.869h-17.871V116.72z"/>
			<path d="M275.597,208.842v-38.571h8.936c2.463,0,4.559,0.865,6.289,2.594c1.729,1.729,2.594,3.817,2.594,6.263
				c0,2.411-0.83,4.472-2.49,6.184c1.783,0.56,3.398,1.556,4.85,2.987c2.34,2.358,3.51,5.197,3.51,8.516
				c0,3.32-1.176,6.154-3.523,8.504c-2.35,2.35-5.186,3.524-8.504,3.524H275.597z M281.466,182.717h3.066
				c0.838,0,1.551-0.318,2.135-0.956c0.586-0.638,0.879-1.419,0.879-2.346c0-0.907-0.293-1.681-0.879-2.318
				c-0.584-0.638-1.297-0.957-2.135-0.957h-3.066V182.717z M281.466,189.896v8.83v4.246h5.791c1.695,0,3.145-0.644,4.35-1.928
				c1.207-1.283,1.809-2.824,1.809-4.624c0-1.782-0.602-3.314-1.809-4.599c-1.205-1.284-2.654-1.926-4.35-1.926H281.466z"/>
			<path d="M311.39,203.626l-2.07,5.347h-6.287l15.564-40.457l15.539,40.457h-6.289l-2.045-5.347H311.39z M313.644,197.757h9.904
				l-4.951-12.865L313.644,197.757z"/>
			<path d="M356.146,197.364l5.502,11.529h-6.289l-4.166-8.936c-1.396,0.419-2.883,0.629-4.455,0.629h-0.445v8.255h-5.869v-38.833
				h6.314c4.229,0,7.836,1.493,10.822,4.48c2.988,2.987,4.48,6.586,4.48,10.795c0,4.229-1.492,7.835-4.48,10.822
				C357.105,196.561,356.634,196.98,356.146,197.364z M346.292,194.77h0.445c2.621,0,4.857-0.925,6.709-2.777
				c1.852-1.851,2.777-4.087,2.777-6.708c0-2.62-0.926-4.855-2.777-6.707s-4.088-2.777-6.709-2.777h-0.445V194.77z"/>
			<path d="M390.419,202.683v-6.419h-4.062v-5.869h9.092v17.085c-2.27,0.907-4.699,1.362-7.283,1.362
				c-2.762,0-5.338-0.511-7.73-1.533c-2.393-1.021-4.49-2.406-6.289-4.154c-1.799-1.746-3.219-3.794-4.258-6.145
				c-1.039-2.349-1.559-4.868-1.559-7.559c0-2.673,0.52-5.201,1.559-7.586s2.459-4.45,4.258-6.197s3.896-3.127,6.289-4.14
				c2.393-1.014,4.969-1.52,7.73-1.52c2.584,0,5.014,0.445,7.283,1.336v6.787c-0.645-0.402-1.326-0.751-2.043-1.049
				c-1.643-0.681-3.389-1.021-5.24-1.021c-1.869,0-3.625,0.341-5.268,1.021c-1.643,0.682-3.074,1.629-4.297,2.843
				c-1.223,1.215-2.184,2.638-2.883,4.271c-0.697,1.634-1.047,3.384-1.047,5.254c0,1.869,0.35,3.621,1.047,5.253
				c0.699,1.634,1.66,3.058,2.883,4.271c1.223,1.215,2.654,2.167,4.297,2.855c1.643,0.691,3.398,1.035,5.268,1.035
				C388.933,202.866,389.685,202.806,390.419,202.683z"/>
			<path d="M401.738,170.271h17.871v5.869h-11.975v14.255h11.975v5.869h-11.975v6.709h11.975v5.869h-17.871V170.271z"/>
		</g>
	</g>
</g>
</svg>
